<mxfile host="app.diagrams.net" modified="2021-07-15T02:44:08.212Z" agent="5.0 (Macintosh; Intel Mac OS X 10_15_3) AppleWebKit/537.36 (KHTML, like Gecko) Chrome/91.0.4472.114 Safari/537.36" etag="Ft9r1wVwLk0HOabUwGT4" version="14.8.6" type="github">
  <diagram id="4h9Jgz2YyqiB8rUjbs18" name="Page-1">
    <mxGraphModel dx="946" dy="524" grid="1" gridSize="10" guides="1" tooltips="1" connect="1" arrows="1" fold="1" page="1" pageScale="1" pageWidth="1169" pageHeight="1654" math="0" shadow="0">
      <root>
        <mxCell id="0" />
        <mxCell id="1" parent="0" />
        <mxCell id="yYsFPrWsCkC2h6r3MeOf-3" value="" style="whiteSpace=wrap;html=1;aspect=fixed;" parent="1" vertex="1">
          <mxGeometry x="170" y="380" width="590" height="590" as="geometry" />
        </mxCell>
        <mxCell id="yYsFPrWsCkC2h6r3MeOf-14" value="" style="outlineConnect=0;dashed=0;verticalLabelPosition=bottom;verticalAlign=top;align=center;html=1;shape=mxgraph.aws3.virtual_private_cloud;fillColor=#F58534;gradientColor=none;" parent="1" vertex="1">
          <mxGeometry x="140" y="350" width="79.5" height="54" as="geometry" />
        </mxCell>
        <mxCell id="yYsFPrWsCkC2h6r3MeOf-22" value="" style="outlineConnect=0;dashed=0;verticalLabelPosition=bottom;verticalAlign=top;align=center;html=1;shape=mxgraph.aws3.internet_gateway;fillColor=#F58536;gradientColor=none;" parent="1" vertex="1">
          <mxGeometry x="658" y="340" width="54" height="56" as="geometry" />
        </mxCell>
        <mxCell id="yYsFPrWsCkC2h6r3MeOf-23" value="" style="rounded=1;whiteSpace=wrap;html=1;arcSize=19;" parent="1" vertex="1">
          <mxGeometry x="200" y="564" width="430" height="226" as="geometry" />
        </mxCell>
        <mxCell id="yYsFPrWsCkC2h6r3MeOf-64" style="edgeStyle=orthogonalEdgeStyle;rounded=0;orthogonalLoop=1;jettySize=auto;html=1;dashed=1;" parent="1" source="yYsFPrWsCkC2h6r3MeOf-15" target="yYsFPrWsCkC2h6r3MeOf-19" edge="1">
          <mxGeometry relative="1" as="geometry" />
        </mxCell>
        <mxCell id="yYsFPrWsCkC2h6r3MeOf-15" value="" style="rounded=1;whiteSpace=wrap;html=1;" parent="1" vertex="1">
          <mxGeometry x="229.5" y="636.5" width="220" height="115" as="geometry" />
        </mxCell>
        <mxCell id="yYsFPrWsCkC2h6r3MeOf-12" value="" style="outlineConnect=0;dashed=0;verticalLabelPosition=bottom;verticalAlign=top;align=center;html=1;shape=mxgraph.aws3.auto_scaling;fillColor=#F58534;gradientColor=none;" parent="1" vertex="1">
          <mxGeometry x="219.5" y="611.5" width="50" height="50" as="geometry" />
        </mxCell>
        <mxCell id="yYsFPrWsCkC2h6r3MeOf-8" value="" style="outlineConnect=0;dashed=0;verticalLabelPosition=bottom;verticalAlign=top;align=center;html=1;shape=mxgraph.aws3.ec2;fillColor=#F58534;gradientColor=none;" parent="1" vertex="1">
          <mxGeometry x="249.5" y="664" width="40" height="60" as="geometry" />
        </mxCell>
        <mxCell id="yYsFPrWsCkC2h6r3MeOf-17" value="" style="outlineConnect=0;dashed=0;verticalLabelPosition=bottom;verticalAlign=top;align=center;html=1;shape=mxgraph.aws3.ec2;fillColor=#F58534;gradientColor=none;" parent="1" vertex="1">
          <mxGeometry x="319.5" y="661.5" width="40" height="62.5" as="geometry" />
        </mxCell>
        <mxCell id="yYsFPrWsCkC2h6r3MeOf-18" value="" style="outlineConnect=0;dashed=0;verticalLabelPosition=bottom;verticalAlign=top;align=center;html=1;shape=mxgraph.aws3.ec2;fillColor=#F58534;gradientColor=none;" parent="1" vertex="1">
          <mxGeometry x="389.5" y="664" width="40" height="60" as="geometry" />
        </mxCell>
        <mxCell id="yYsFPrWsCkC2h6r3MeOf-19" value="" style="outlineConnect=0;dashed=0;verticalLabelPosition=bottom;verticalAlign=top;align=center;html=1;shape=mxgraph.aws3.vpc_nat_gateway;fillColor=#F58534;gradientColor=none;" parent="1" vertex="1">
          <mxGeometry x="540" y="581.5" width="49" height="50" as="geometry" />
        </mxCell>
        <mxCell id="yYsFPrWsCkC2h6r3MeOf-69" value="" style="edgeStyle=orthogonalEdgeStyle;rounded=0;orthogonalLoop=1;jettySize=auto;html=1;dashed=1;" parent="1" source="yYsFPrWsCkC2h6r3MeOf-27" target="yYsFPrWsCkC2h6r3MeOf-22" edge="1">
          <mxGeometry relative="1" as="geometry" />
        </mxCell>
        <mxCell id="yYsFPrWsCkC2h6r3MeOf-27" value="" style="outlineConnect=0;dashed=0;verticalLabelPosition=bottom;verticalAlign=top;align=center;html=1;shape=mxgraph.aws3.router;fillColor=#F58534;gradientColor=none;" parent="1" vertex="1">
          <mxGeometry x="660" y="435" width="50" height="50" as="geometry" />
        </mxCell>
        <mxCell id="yYsFPrWsCkC2h6r3MeOf-28" value="" style="points=[[0,0,0],[0.25,0,0],[0.5,0,0],[0.75,0,0],[1,0,0],[0,1,0],[0.25,1,0],[0.5,1,0],[0.75,1,0],[1,1,0],[0,0.25,0],[0,0.5,0],[0,0.75,0],[1,0.25,0],[1,0.5,0],[1,0.75,0]];outlineConnect=0;fontColor=#232F3E;gradientColor=#F78E04;gradientDirection=north;fillColor=#D05C17;strokeColor=#ffffff;dashed=0;verticalLabelPosition=bottom;verticalAlign=top;align=center;html=1;fontSize=12;fontStyle=0;aspect=fixed;shape=mxgraph.aws4.resourceIcon;resIcon=mxgraph.aws4.eks;" parent="1" vertex="1">
          <mxGeometry x="210" y="538.5" width="51.5" height="51.5" as="geometry" />
        </mxCell>
        <mxCell id="yYsFPrWsCkC2h6r3MeOf-31" value="" style="image;html=1;image=img/lib/clip_art/networking/Cloud_128x128.png" parent="1" vertex="1">
          <mxGeometry x="405" y="120" width="80" height="80" as="geometry" />
        </mxCell>
        <mxCell id="yYsFPrWsCkC2h6r3MeOf-36" value="" style="rounded=0;whiteSpace=wrap;html=1;fillColor=#fff2cc;strokeColor=#d6b656;" parent="1" vertex="1">
          <mxGeometry x="820" y="395" width="160" height="130" as="geometry" />
        </mxCell>
        <mxCell id="yYsFPrWsCkC2h6r3MeOf-30" value="" style="outlineConnect=0;dashed=0;verticalLabelPosition=bottom;verticalAlign=top;align=center;html=1;shape=mxgraph.aws3.s3;fillColor=#E05243;gradientColor=none;" parent="1" vertex="1">
          <mxGeometry x="873.75" y="410" width="47.5" height="60" as="geometry" />
        </mxCell>
        <mxCell id="yYsFPrWsCkC2h6r3MeOf-39" value="" style="rounded=0;whiteSpace=wrap;html=1;fillColor=#fff2cc;strokeColor=#d6b656;" parent="1" vertex="1">
          <mxGeometry x="821.38" y="621.5" width="157.25" height="130" as="geometry" />
        </mxCell>
        <mxCell id="yYsFPrWsCkC2h6r3MeOf-33" value="" style="outlineConnect=0;dashed=0;verticalLabelPosition=bottom;verticalAlign=top;align=center;html=1;shape=mxgraph.aws3.cloudwatch;fillColor=#759C3E;gradientColor=none;" parent="1" vertex="1">
          <mxGeometry x="870" y="642.5" width="69.5" height="65" as="geometry" />
        </mxCell>
        <mxCell id="yYsFPrWsCkC2h6r3MeOf-40" value="" style="rounded=0;whiteSpace=wrap;html=1;fillColor=#fff2cc;strokeColor=#d6b656;" parent="1" vertex="1">
          <mxGeometry x="580" y="850" width="132.25" height="110" as="geometry" />
        </mxCell>
        <mxCell id="yYsFPrWsCkC2h6r3MeOf-34" value="" style="outlineConnect=0;dashed=0;verticalLabelPosition=bottom;verticalAlign=top;align=center;html=1;shape=mxgraph.aws3.rds;fillColor=#2E73B8;gradientColor=none;" parent="1" vertex="1">
          <mxGeometry x="622.5" y="870" width="47.25" height="50.5" as="geometry" />
        </mxCell>
        <mxCell id="yYsFPrWsCkC2h6r3MeOf-42" value="" style="rounded=0;whiteSpace=wrap;html=1;fillColor=#fff2cc;strokeColor=#d6b656;" parent="1" vertex="1">
          <mxGeometry x="300" y="240" width="290" height="90" as="geometry" />
        </mxCell>
        <mxCell id="yYsFPrWsCkC2h6r3MeOf-32" value="" style="outlineConnect=0;dashed=0;verticalLabelPosition=bottom;verticalAlign=top;align=center;html=1;shape=mxgraph.aws3.application_load_balancer;fillColor=#F58534;gradientColor=none;" parent="1" vertex="1">
          <mxGeometry x="414.75" y="255" width="60.5" height="60" as="geometry" />
        </mxCell>
        <mxCell id="yYsFPrWsCkC2h6r3MeOf-57" value="" style="edgeStyle=orthogonalEdgeStyle;rounded=0;orthogonalLoop=1;jettySize=auto;html=1;dashed=1;" parent="1" source="yYsFPrWsCkC2h6r3MeOf-3" target="yYsFPrWsCkC2h6r3MeOf-33" edge="1">
          <mxGeometry relative="1" as="geometry" />
        </mxCell>
        <mxCell id="yYsFPrWsCkC2h6r3MeOf-59" value="" style="endArrow=classic;html=1;dashed=1;entryX=0;entryY=0.5;entryDx=0;entryDy=0;exitX=1;exitY=0.25;exitDx=0;exitDy=0;" parent="1" source="yYsFPrWsCkC2h6r3MeOf-23" target="yYsFPrWsCkC2h6r3MeOf-36" edge="1">
          <mxGeometry relative="1" as="geometry">
            <mxPoint x="640" y="630" as="sourcePoint" />
            <mxPoint x="600" y="620" as="targetPoint" />
            <Array as="points">
              <mxPoint x="780" y="621" />
              <mxPoint x="780" y="460" />
            </Array>
          </mxGeometry>
        </mxCell>
        <mxCell id="yYsFPrWsCkC2h6r3MeOf-65" value="" style="endArrow=classic;html=1;dashed=1;exitX=1;exitY=0.5;exitDx=0;exitDy=0;exitPerimeter=0;entryX=0.5;entryY=1;entryDx=0;entryDy=0;entryPerimeter=0;" parent="1" source="yYsFPrWsCkC2h6r3MeOf-19" target="yYsFPrWsCkC2h6r3MeOf-27" edge="1">
          <mxGeometry relative="1" as="geometry">
            <mxPoint x="440" y="550" as="sourcePoint" />
            <mxPoint x="600" y="550" as="targetPoint" />
            <Array as="points">
              <mxPoint x="685" y="607" />
            </Array>
          </mxGeometry>
        </mxCell>
        <mxCell id="yYsFPrWsCkC2h6r3MeOf-70" value="" style="edgeStyle=orthogonalEdgeStyle;rounded=0;orthogonalLoop=1;jettySize=auto;html=1;dashed=1;" parent="1" source="yYsFPrWsCkC2h6r3MeOf-31" target="yYsFPrWsCkC2h6r3MeOf-32" edge="1">
          <mxGeometry relative="1" as="geometry" />
        </mxCell>
        <mxCell id="yYsFPrWsCkC2h6r3MeOf-73" value="" style="endArrow=classic;html=1;dashed=1;exitX=0.5;exitY=1;exitDx=0;exitDy=0;exitPerimeter=0;" parent="1" source="yYsFPrWsCkC2h6r3MeOf-32" edge="1">
          <mxGeometry relative="1" as="geometry">
            <mxPoint x="440" y="410" as="sourcePoint" />
            <mxPoint x="445" y="560" as="targetPoint" />
          </mxGeometry>
        </mxCell>
        <mxCell id="yYsFPrWsCkC2h6r3MeOf-77" value="AWS SERVICE" style="rounded=0;whiteSpace=wrap;html=1;fillColor=#fff2cc;strokeColor=#d6b656;" parent="1" vertex="1">
          <mxGeometry x="169.5" y="1000" width="130.5" height="40" as="geometry" />
        </mxCell>
        <mxCell id="yYsFPrWsCkC2h6r3MeOf-78" value="NLB" style="text;html=1;strokeColor=none;fillColor=none;align=center;verticalAlign=middle;whiteSpace=wrap;rounded=0;" parent="1" vertex="1">
          <mxGeometry x="475.25" y="300" width="40" height="20" as="geometry" />
        </mxCell>
        <mxCell id="yYsFPrWsCkC2h6r3MeOf-79" value="EKS&amp;nbsp;" style="text;html=1;strokeColor=none;fillColor=none;align=center;verticalAlign=middle;whiteSpace=wrap;rounded=0;" parent="1" vertex="1">
          <mxGeometry x="261.5" y="570" width="40" height="20" as="geometry" />
        </mxCell>
        <mxCell id="yYsFPrWsCkC2h6r3MeOf-80" value="NAT gateway" style="text;html=1;strokeColor=none;fillColor=none;align=center;verticalAlign=middle;whiteSpace=wrap;rounded=0;" parent="1" vertex="1">
          <mxGeometry x="580" y="630" width="40" height="20" as="geometry" />
        </mxCell>
        <mxCell id="yYsFPrWsCkC2h6r3MeOf-81" value="PRIVATE SUBNET" style="text;html=1;strokeColor=none;fillColor=none;align=center;verticalAlign=middle;whiteSpace=wrap;rounded=0;" parent="1" vertex="1">
          <mxGeometry x="301.5" y="538.5" width="108.5" height="20" as="geometry" />
        </mxCell>
        <mxCell id="yYsFPrWsCkC2h6r3MeOf-82" value="ROUTER" style="text;html=1;strokeColor=none;fillColor=none;align=center;verticalAlign=middle;whiteSpace=wrap;rounded=0;" parent="1" vertex="1">
          <mxGeometry x="700" y="485" width="40" height="20" as="geometry" />
        </mxCell>
        <mxCell id="yYsFPrWsCkC2h6r3MeOf-83" value="EC2 or Fargete autoscaling" style="text;html=1;strokeColor=none;fillColor=none;align=center;verticalAlign=middle;whiteSpace=wrap;rounded=0;" parent="1" vertex="1">
          <mxGeometry x="272.25" y="760" width="118.75" height="20" as="geometry" />
        </mxCell>
        <mxCell id="yYsFPrWsCkC2h6r3MeOf-84" value="RDS Postgres" style="text;html=1;strokeColor=none;fillColor=none;align=center;verticalAlign=middle;whiteSpace=wrap;rounded=0;" parent="1" vertex="1">
          <mxGeometry x="606.13" y="930" width="80" height="20" as="geometry" />
        </mxCell>
        <mxCell id="yYsFPrWsCkC2h6r3MeOf-85" value="S3" style="text;html=1;strokeColor=none;fillColor=none;align=center;verticalAlign=middle;whiteSpace=wrap;rounded=0;" parent="1" vertex="1">
          <mxGeometry x="877.5" y="476" width="40" height="20" as="geometry" />
        </mxCell>
        <mxCell id="yYsFPrWsCkC2h6r3MeOf-86" value="Cloud watch" style="text;html=1;strokeColor=none;fillColor=none;align=center;verticalAlign=middle;whiteSpace=wrap;rounded=0;" parent="1" vertex="1">
          <mxGeometry x="868.5" y="720" width="72.5" height="20" as="geometry" />
        </mxCell>
        <mxCell id="yYsFPrWsCkC2h6r3MeOf-88" value="route to ingress-nginx controller" style="text;html=1;strokeColor=none;fillColor=none;align=center;verticalAlign=middle;whiteSpace=wrap;rounded=0;" parent="1" vertex="1">
          <mxGeometry x="440" y="456" width="140" height="20" as="geometry" />
        </mxCell>
        <mxCell id="yYsFPrWsCkC2h6r3MeOf-89" value="" style="endArrow=classic;html=1;dashed=1;exitX=0.5;exitY=0;exitDx=0;exitDy=0;exitPerimeter=0;entryX=1;entryY=0.5;entryDx=0;entryDy=0;" parent="1" source="yYsFPrWsCkC2h6r3MeOf-22" target="yYsFPrWsCkC2h6r3MeOf-31" edge="1">
          <mxGeometry relative="1" as="geometry">
            <mxPoint x="560" y="410" as="sourcePoint" />
            <mxPoint x="720" y="410" as="targetPoint" />
            <Array as="points">
              <mxPoint x="685" y="160" />
            </Array>
          </mxGeometry>
        </mxCell>
        <mxCell id="yYsFPrWsCkC2h6r3MeOf-93" value="Internal Service to third party" style="text;html=1;strokeColor=none;fillColor=none;align=center;verticalAlign=middle;whiteSpace=wrap;rounded=0;" parent="1" vertex="1">
          <mxGeometry x="700" y="210" width="100" height="20" as="geometry" />
        </mxCell>
        <mxCell id="yYsFPrWsCkC2h6r3MeOf-94" value="Requset from client" style="text;html=1;strokeColor=none;fillColor=none;align=center;verticalAlign=middle;whiteSpace=wrap;rounded=0;" parent="1" vertex="1">
          <mxGeometry x="449.5" y="210" width="100.5" height="20" as="geometry" />
        </mxCell>
        <mxCell id="yYsFPrWsCkC2h6r3MeOf-95" value="Internet gateway&amp;nbsp;" style="text;html=1;strokeColor=none;fillColor=none;align=center;verticalAlign=middle;whiteSpace=wrap;rounded=0;" parent="1" vertex="1">
          <mxGeometry x="700" y="350" width="90" height="20" as="geometry" />
        </mxCell>
        <mxCell id="44BmXgB-hYXjfOnaE24B-2" value="" style="endArrow=classic;html=1;exitX=0.5;exitY=1;exitDx=0;exitDy=0;entryX=0;entryY=0.5;entryDx=0;entryDy=0;dashed=1;" edge="1" parent="1" source="yYsFPrWsCkC2h6r3MeOf-23" target="yYsFPrWsCkC2h6r3MeOf-40">
          <mxGeometry relative="1" as="geometry">
            <mxPoint x="490" y="810" as="sourcePoint" />
            <mxPoint x="650" y="810" as="targetPoint" />
            <Array as="points">
              <mxPoint x="415" y="905" />
            </Array>
          </mxGeometry>
        </mxCell>
        <mxCell id="44BmXgB-hYXjfOnaE24B-6" value="DATABASE SUBNET" style="text;html=1;strokeColor=none;fillColor=none;align=center;verticalAlign=middle;whiteSpace=wrap;rounded=0;" vertex="1" parent="1">
          <mxGeometry x="591.88" y="817" width="108.5" height="20" as="geometry" />
        </mxCell>
        <mxCell id="44BmXgB-hYXjfOnaE24B-8" value="logs" style="text;html=1;strokeColor=none;fillColor=none;align=center;verticalAlign=middle;whiteSpace=wrap;rounded=0;" vertex="1" parent="1">
          <mxGeometry x="770" y="650" width="40" height="20" as="geometry" />
        </mxCell>
      </root>
    </mxGraphModel>
  </diagram>
</mxfile>
